<?xml version="1.0" standalone="no"?>
<!DOCTYPE svg PUBLIC "-//W3C//DTD SVG 20010904//EN"
 "http://www.w3.org/TR/2001/REC-SVG-20010904/DTD/svg10.dtd">
<svg version="1.0" xmlns="http://www.w3.org/2000/svg"
 width="164.000000pt" height="22.000000pt" viewBox="0 0 164.000000 22.000000"
 preserveAspectRatio="xMidYMid meet">
<metadata>
Created by potrace 1.10, written by Peter Selinger 2001-2011
</metadata>
<g transform="translate(0.000000,22.000000) scale(0.050000,-0.050000)"
fill="#58f3f0" stroke="none">
<path d="M2955 409 c-161 -88 -140 -331 33 -388 99 -33 203 2 253 86 117 191
-89 408 -286 302z m234 -70 c52 -51 54 -181 3 -236 -132 -147 -369 13 -284
191 53 111 194 133 281 45z"/>
<path d="M3000 220 c0 -33 4 -60 9 -60 23 0 111 48 111 60 0 12 -88 60 -111
60 -5 0 -9 -27 -9 -60z"/>
<path d="M246 355 c-11 -14 -31 -54 -45 -90 -34 -85 -50 -82 -89 15 -56 142
-112 112 -112 -60 0 -164 58 -216 62 -55 l1 85 39 -85 c22 -47 49 -85 60 -85
11 0 37 38 57 85 l38 85 2 -85 c1 -62 9 -85 31 -85 24 0 30 30 30 150 0 151
-24 191 -74 125z"/>
<path d="M413 339 c-62 -49 -71 -144 -22 -215 40 -57 167 -61 216 -7 78 86 7
263 -107 263 -19 0 -58 -19 -87 -41z m157 -107 c0 -104 -127 -125 -147 -24
-13 66 14 95 82 88 57 -5 65 -13 65 -64z"/>
<path d="M677 370 c-29 -29 89 -292 128 -286 48 7 146 253 114 285 -26 26 -47
-2 -76 -104 -31 -108 -46 -107 -83 9 -28 87 -58 122 -83 96z"/>
<path d="M973 366 c-29 -29 -14 -286 17 -286 24 0 30 29 30 139 0 128 -16 178
-47 147z"/>
<path d="M1115 366 c-54 -8 -55 -12 -55 -147 l0 -139 110 0 c84 0 110 7 110
30 0 22 -22 30 -80 30 -58 0 -80 8 -80 30 0 21 21 30 70 30 50 0 70 9 70 32 0
23 -16 29 -63 25 -37 -4 -67 3 -72 17 -5 15 21 26 69 30 51 4 76 16 76 36 0
32 -58 41 -155 26z"/>
<path d="M1380 231 c0 -173 58 -236 62 -66 l1 85 39 -85 c49 -106 67 -106 116
0 l39 85 1 -85 c2 -63 10 -85 33 -85 25 0 30 25 25 145 -7 173 -44 194 -104
60 -22 -47 -44 -85 -51 -85 -7 0 -30 38 -52 85 -67 146 -109 126 -109 -54z"/>
<path d="M1827 355 c-58 -93 -102 -275 -67 -275 20 0 41 14 47 30 15 39 81 39
113 0 36 -43 88 -39 70 5 -8 19 -32 87 -54 150 -38 111 -77 143 -109 90z m53
-93 c0 -10 5 -33 12 -50 9 -23 0 -32 -32 -32 -32 0 -41 9 -32 32 7 17 12 40
12 50 0 10 9 18 20 18 11 0 20 -8 20 -18z"/>
<path d="M2033 367 c-28 -29 -14 -287 16 -287 19 0 31 27 35 85 l6 85 55 -85
c82 -126 110 -113 118 55 6 125 3 140 -30 140 -32 0 -35 -11 -23 -80 18 -105
-7 -101 -75 10 -53 88 -74 104 -102 77z"/>
<path d="M2314 367 c-30 -30 -16 -287 16 -287 23 0 31 28 33 120 2 66 4 131 5
143 2 28 -34 44 -54 24z"/>
<path d="M2491 361 c-17 -27 -91 -242 -91 -264 0 -29 55 -19 67 13 12 30 41
26 128 -15 70 -34 74 -7 20 139 -47 128 -94 176 -124 127z m65 -148 c4 -19 -6
-33 -25 -33 -18 0 -31 17 -31 42 0 48 47 42 56 -9z"/>
</g>
</svg>
